<svg width="258" height="32" viewBox="0 0 258 32" fill="none" xmlns="http://www.w3.org/2000/svg">
<path d="M13 8C13 3.58172 16.5817 0 21 0H37C41.4183 0 45 3.58172 45 8V24C45 28.4183 41.4183 32 37 32H21C16.5817 32 13 28.4183 13 24V8Z" fill="#6B7B62"/>
<g style="mix-blend-mode:lighten">
<path d="M24.5562 23.2545C24.5562 22.5048 25.0244 21.7858 25.858 21.2556C26.6915 20.7254 27.822 20.4276 29.0007 20.4276C30.1795 20.4276 31.31 20.7254 32.1435 21.2556C32.977 21.7858 33.4453 22.5048 33.4453 23.2545L29.0007 23.2545L24.5562 23.2545Z" fill="white"/>
<path d="M22.3325 19.4189C22.3325 18.2943 23.0349 17.2158 24.2851 16.4206C25.5354 15.6253 27.2311 15.1786 28.9992 15.1786C30.7674 15.1786 32.4631 15.6253 33.7134 16.4206C34.9636 17.2158 35.666 18.2943 35.666 19.4189L28.9992 19.4189L22.3325 19.4189Z" fill="white"/>
<path d="M19 14.186C19 12.4991 20.0535 10.8813 21.9289 9.68849C23.8043 8.49568 26.3478 7.82556 29 7.82556C31.6522 7.82556 34.1957 8.49568 36.0711 9.68849C37.9464 10.8813 39 12.4991 39 14.186L29 14.186L19 14.186Z" fill="white"/>
</g>
<path d="M58.5859 11.1406L55.1875 21H53.1328L57.4141 9.625H58.7266L58.5859 11.1406ZM61.4297 21L58.0234 11.1406L57.875 9.625H59.1953L63.4922 21H61.4297ZM61.2656 16.7812V18.3359H55.0781V16.7812H61.2656ZM68.0312 19.6562C68.3385 19.6562 68.6146 19.5964 68.8594 19.4766C69.1094 19.3516 69.3099 19.1797 69.4609 18.9609C69.6172 18.7422 69.7031 18.4896 69.7188 18.2031H71.4922C71.4818 18.75 71.3203 19.2474 71.0078 19.6953C70.6953 20.1432 70.2812 20.5 69.7656 20.7656C69.25 21.026 68.6797 21.1562 68.0547 21.1562C67.4089 21.1562 66.8464 21.0469 66.3672 20.8281C65.888 20.6042 65.4896 20.2969 65.1719 19.9062C64.8542 19.5156 64.6146 19.0651 64.4531 18.5547C64.2969 18.0443 64.2188 17.4974 64.2188 16.9141V16.6406C64.2188 16.0573 64.2969 15.5104 64.4531 15C64.6146 14.4844 64.8542 14.0312 65.1719 13.6406C65.4896 13.25 65.888 12.9453 66.3672 12.7266C66.8464 12.5026 67.4062 12.3906 68.0469 12.3906C68.724 12.3906 69.3177 12.526 69.8281 12.7969C70.3385 13.0625 70.7396 13.4349 71.0312 13.9141C71.3281 14.388 71.4818 14.9401 71.4922 15.5703H69.7188C69.7031 15.2578 69.625 14.9766 69.4844 14.7266C69.349 14.4714 69.1562 14.2682 68.9062 14.1172C68.6615 13.9661 68.3672 13.8906 68.0234 13.8906C67.6432 13.8906 67.3281 13.9688 67.0781 14.125C66.8281 14.276 66.6328 14.4844 66.4922 14.75C66.3516 15.0104 66.25 15.3047 66.1875 15.6328C66.1302 15.9557 66.1016 16.2917 66.1016 16.6406V16.9141C66.1016 17.263 66.1302 17.6016 66.1875 17.9297C66.2448 18.2578 66.3438 18.5521 66.4844 18.8125C66.6302 19.0677 66.8281 19.2734 67.0781 19.4297C67.3281 19.5807 67.6458 19.6562 68.0312 19.6562ZM76.6641 21.1562C76.0391 21.1562 75.474 21.0547 74.9688 20.8516C74.4688 20.6432 74.0417 20.3542 73.6875 19.9844C73.3385 19.6146 73.0703 19.1797 72.8828 18.6797C72.6953 18.1797 72.6016 17.6406 72.6016 17.0625V16.75C72.6016 16.0885 72.6979 15.4896 72.8906 14.9531C73.0833 14.4167 73.3516 13.9583 73.6953 13.5781C74.0391 13.1927 74.4453 12.8984 74.9141 12.6953C75.3828 12.4922 75.8906 12.3906 76.4375 12.3906C77.0417 12.3906 77.5703 12.4922 78.0234 12.6953C78.4766 12.8984 78.8516 13.1849 79.1484 13.5547C79.4505 13.9193 79.6745 14.3542 79.8203 14.8594C79.9714 15.3646 80.0469 15.9219 80.0469 16.5312V17.3359H73.5156V15.9844H78.1875V15.8359C78.1771 15.4974 78.1094 15.1797 77.9844 14.8828C77.8646 14.5859 77.6797 14.3464 77.4297 14.1641C77.1797 13.9818 76.8464 13.8906 76.4297 13.8906C76.1172 13.8906 75.8385 13.9583 75.5938 14.0938C75.3542 14.224 75.1536 14.4141 74.9922 14.6641C74.8307 14.9141 74.7057 15.2161 74.6172 15.5703C74.5339 15.9193 74.4922 16.3125 74.4922 16.75V17.0625C74.4922 17.4323 74.5417 17.776 74.6406 18.0938C74.7448 18.4062 74.8958 18.6797 75.0938 18.9141C75.2917 19.1484 75.5312 19.3333 75.8125 19.4688C76.0938 19.599 76.4141 19.6641 76.7734 19.6641C77.2266 19.6641 77.6302 19.5729 77.9844 19.3906C78.3385 19.2083 78.6458 18.9505 78.9062 18.6172L79.8984 19.5781C79.7161 19.8438 79.4792 20.099 79.1875 20.3438C78.8958 20.5833 78.5391 20.7786 78.1172 20.9297C77.7005 21.0807 77.2161 21.1562 76.6641 21.1562ZM86.2578 18.7109C86.2578 18.5234 86.2109 18.3542 86.1172 18.2031C86.0234 18.0469 85.8438 17.9062 85.5781 17.7812C85.3177 17.6562 84.9323 17.5417 84.4219 17.4375C83.974 17.3385 83.5625 17.2214 83.1875 17.0859C82.8177 16.9453 82.5 16.776 82.2344 16.5781C81.9688 16.3802 81.763 16.1458 81.6172 15.875C81.4714 15.6042 81.3984 15.2917 81.3984 14.9375C81.3984 14.5938 81.474 14.2682 81.625 13.9609C81.776 13.6536 81.9922 13.3828 82.2734 13.1484C82.5547 12.9141 82.8958 12.7292 83.2969 12.5938C83.7031 12.4583 84.1562 12.3906 84.6562 12.3906C85.3646 12.3906 85.9714 12.5104 86.4766 12.75C86.987 12.9844 87.3776 13.3047 87.6484 13.7109C87.9193 14.112 88.0547 14.5651 88.0547 15.0703H86.1719C86.1719 14.8464 86.1146 14.638 86 14.4453C85.8906 14.2474 85.724 14.0885 85.5 13.9688C85.276 13.8438 84.9948 13.7812 84.6562 13.7812C84.3333 13.7812 84.0651 13.8333 83.8516 13.9375C83.6432 14.0365 83.487 14.1667 83.3828 14.3281C83.2839 14.4896 83.2344 14.6667 83.2344 14.8594C83.2344 15 83.2604 15.1276 83.3125 15.2422C83.3698 15.3516 83.4635 15.4531 83.5938 15.5469C83.724 15.6354 83.901 15.7188 84.125 15.7969C84.3542 15.875 84.6406 15.9505 84.9844 16.0234C85.6302 16.1589 86.1849 16.3333 86.6484 16.5469C87.1172 16.7552 87.4766 17.026 87.7266 17.3594C87.9766 17.6875 88.1016 18.1042 88.1016 18.6094C88.1016 18.9844 88.0208 19.3281 87.8594 19.6406C87.7031 19.9479 87.474 20.2161 87.1719 20.4453C86.8698 20.6693 86.5078 20.8438 86.0859 20.9688C85.6693 21.0938 85.2005 21.1562 84.6797 21.1562C83.9141 21.1562 83.2656 21.0208 82.7344 20.75C82.2031 20.474 81.7995 20.1224 81.5234 19.6953C81.2526 19.263 81.1172 18.8151 81.1172 18.3516H82.9375C82.9583 18.7005 83.0547 18.9792 83.2266 19.1875C83.4036 19.3906 83.6224 19.5391 83.8828 19.6328C84.1484 19.7214 84.4219 19.7656 84.7031 19.7656C85.0417 19.7656 85.3255 19.7214 85.5547 19.6328C85.7839 19.5391 85.9583 19.4141 86.0781 19.2578C86.1979 19.0964 86.2578 18.9141 86.2578 18.7109ZM94.4922 18.7109C94.4922 18.5234 94.4453 18.3542 94.3516 18.2031C94.2578 18.0469 94.0781 17.9062 93.8125 17.7812C93.5521 17.6562 93.1667 17.5417 92.6562 17.4375C92.2083 17.3385 91.7969 17.2214 91.4219 17.0859C91.0521 16.9453 90.7344 16.776 90.4688 16.5781C90.2031 16.3802 89.9974 16.1458 89.8516 15.875C89.7057 15.6042 89.6328 15.2917 89.6328 14.9375C89.6328 14.5938 89.7083 14.2682 89.8594 13.9609C90.0104 13.6536 90.2266 13.3828 90.5078 13.1484C90.7891 12.9141 91.1302 12.7292 91.5312 12.5938C91.9375 12.4583 92.3906 12.3906 92.8906 12.3906C93.599 12.3906 94.2057 12.5104 94.7109 12.75C95.2214 12.9844 95.612 13.3047 95.8828 13.7109C96.1536 14.112 96.2891 14.5651 96.2891 15.0703H94.4062C94.4062 14.8464 94.349 14.638 94.2344 14.4453C94.125 14.2474 93.9583 14.0885 93.7344 13.9688C93.5104 13.8438 93.2292 13.7812 92.8906 13.7812C92.5677 13.7812 92.2995 13.8333 92.0859 13.9375C91.8776 14.0365 91.7214 14.1667 91.6172 14.3281C91.5182 14.4896 91.4688 14.6667 91.4688 14.8594C91.4688 15 91.4948 15.1276 91.5469 15.2422C91.6042 15.3516 91.6979 15.4531 91.8281 15.5469C91.9583 15.6354 92.1354 15.7188 92.3594 15.7969C92.5885 15.875 92.875 15.9505 93.2188 16.0234C93.8646 16.1589 94.4193 16.3333 94.8828 16.5469C95.3516 16.7552 95.7109 17.026 95.9609 17.3594C96.2109 17.6875 96.3359 18.1042 96.3359 18.6094C96.3359 18.9844 96.2552 19.3281 96.0938 19.6406C95.9375 19.9479 95.7083 20.2161 95.4062 20.4453C95.1042 20.6693 94.7422 20.8438 94.3203 20.9688C93.9036 21.0938 93.4349 21.1562 92.9141 21.1562C92.1484 21.1562 91.5 21.0208 90.9688 20.75C90.4375 20.474 90.0339 20.1224 89.7578 19.6953C89.487 19.263 89.3516 18.8151 89.3516 18.3516H91.1719C91.1927 18.7005 91.2891 18.9792 91.4609 19.1875C91.638 19.3906 91.8568 19.5391 92.1172 19.6328C92.3828 19.7214 92.6562 19.7656 92.9375 19.7656C93.276 19.7656 93.5599 19.7214 93.7891 19.6328C94.0182 19.5391 94.1927 19.4141 94.3125 19.2578C94.4323 19.0964 94.4922 18.9141 94.4922 18.7109ZM97.625 16.8672V16.6875C97.625 16.0781 97.7135 15.513 97.8906 14.9922C98.0677 14.4661 98.3229 14.0104 98.6562 13.625C98.9948 13.2344 99.4062 12.9323 99.8906 12.7188C100.38 12.5 100.932 12.3906 101.547 12.3906C102.167 12.3906 102.719 12.5 103.203 12.7188C103.693 12.9323 104.107 13.2344 104.445 13.625C104.784 14.0104 105.042 14.4661 105.219 14.9922C105.396 15.513 105.484 16.0781 105.484 16.6875V16.8672C105.484 17.4766 105.396 18.0417 105.219 18.5625C105.042 19.0833 104.784 19.5391 104.445 19.9297C104.107 20.3151 103.695 20.6172 103.211 20.8359C102.727 21.0495 102.177 21.1562 101.562 21.1562C100.943 21.1562 100.388 21.0495 99.8984 20.8359C99.4141 20.6172 99.0026 20.3151 98.6641 19.9297C98.3255 19.5391 98.0677 19.0833 97.8906 18.5625C97.7135 18.0417 97.625 17.4766 97.625 16.8672ZM99.5078 16.6875V16.8672C99.5078 17.2474 99.5469 17.6068 99.625 17.9453C99.7031 18.2839 99.8255 18.5807 99.9922 18.8359C100.159 19.0911 100.372 19.2917 100.633 19.4375C100.893 19.5833 101.203 19.6562 101.562 19.6562C101.911 19.6562 102.214 19.5833 102.469 19.4375C102.729 19.2917 102.943 19.0911 103.109 18.8359C103.276 18.5807 103.398 18.2839 103.477 17.9453C103.56 17.6068 103.602 17.2474 103.602 16.8672V16.6875C103.602 16.3125 103.56 15.9583 103.477 15.625C103.398 15.2865 103.273 14.987 103.102 14.7266C102.935 14.4661 102.721 14.263 102.461 14.1172C102.206 13.9661 101.901 13.8906 101.547 13.8906C101.193 13.8906 100.885 13.9661 100.625 14.1172C100.37 14.263 100.159 14.4661 99.9922 14.7266C99.8255 14.987 99.7031 15.2865 99.625 15.625C99.5469 15.9583 99.5078 16.3125 99.5078 16.6875ZM114.773 21.1562C114.148 21.1562 113.583 21.0547 113.078 20.8516C112.578 20.6432 112.151 20.3542 111.797 19.9844C111.448 19.6146 111.18 19.1797 110.992 18.6797C110.805 18.1797 110.711 17.6406 110.711 17.0625V16.75C110.711 16.0885 110.807 15.4896 111 14.9531C111.193 14.4167 111.461 13.9583 111.805 13.5781C112.148 13.1927 112.555 12.8984 113.023 12.6953C113.492 12.4922 114 12.3906 114.547 12.3906C115.151 12.3906 115.68 12.4922 116.133 12.6953C116.586 12.8984 116.961 13.1849 117.258 13.5547C117.56 13.9193 117.784 14.3542 117.93 14.8594C118.081 15.3646 118.156 15.9219 118.156 16.5312V17.3359H111.625V15.9844H116.297V15.8359C116.286 15.4974 116.219 15.1797 116.094 14.8828C115.974 14.5859 115.789 14.3464 115.539 14.1641C115.289 13.9818 114.956 13.8906 114.539 13.8906C114.227 13.8906 113.948 13.9583 113.703 14.0938C113.464 14.224 113.263 14.4141 113.102 14.6641C112.94 14.9141 112.815 15.2161 112.727 15.5703C112.643 15.9193 112.602 16.3125 112.602 16.75V17.0625C112.602 17.4323 112.651 17.776 112.75 18.0938C112.854 18.4062 113.005 18.6797 113.203 18.9141C113.401 19.1484 113.641 19.3333 113.922 19.4688C114.203 19.599 114.523 19.6641 114.883 19.6641C115.336 19.6641 115.74 19.5729 116.094 19.3906C116.448 19.2083 116.755 18.9505 117.016 18.6172L118.008 19.5781C117.826 19.8438 117.589 20.099 117.297 20.3438C117.005 20.5833 116.648 20.7786 116.227 20.9297C115.81 21.0807 115.326 21.1562 114.773 21.1562ZM121.062 12.5469L122.672 15.3516L124.312 12.5469H126.383L123.82 16.6953L126.484 21H124.414L122.695 18.0781L120.977 21H118.898L121.555 16.6953L119 12.5469H121.062ZM129.562 14.1719V24.25H127.68V12.5469H129.414L129.562 14.1719ZM135.07 16.6953V16.8594C135.07 17.474 134.997 18.0443 134.852 18.5703C134.711 19.0911 134.5 19.5469 134.219 19.9375C133.943 20.3229 133.602 20.6224 133.195 20.8359C132.789 21.0495 132.32 21.1562 131.789 21.1562C131.263 21.1562 130.802 21.0599 130.406 20.8672C130.016 20.6693 129.685 20.3906 129.414 20.0312C129.143 19.6719 128.924 19.25 128.758 18.7656C128.596 18.276 128.482 17.7396 128.414 17.1562V16.5234C128.482 15.9036 128.596 15.3411 128.758 14.8359C128.924 14.3307 129.143 13.8958 129.414 13.5312C129.685 13.1667 130.016 12.8854 130.406 12.6875C130.797 12.4896 131.253 12.3906 131.773 12.3906C132.305 12.3906 132.776 12.4948 133.188 12.7031C133.599 12.9062 133.945 13.1979 134.227 13.5781C134.508 13.9531 134.719 14.4062 134.859 14.9375C135 15.4635 135.07 16.0495 135.07 16.6953ZM133.188 16.8594V16.6953C133.188 16.3047 133.151 15.9427 133.078 15.6094C133.005 15.2708 132.891 14.974 132.734 14.7188C132.578 14.4635 132.378 14.2656 132.133 14.125C131.893 13.9792 131.604 13.9062 131.266 13.9062C130.932 13.9062 130.646 13.9635 130.406 14.0781C130.167 14.1875 129.966 14.3411 129.805 14.5391C129.643 14.737 129.518 14.9688 129.43 15.2344C129.341 15.4948 129.279 15.7786 129.242 16.0859V17.6016C129.305 17.9766 129.411 18.3203 129.562 18.6328C129.714 18.9453 129.927 19.1953 130.203 19.3828C130.484 19.5651 130.844 19.6562 131.281 19.6562C131.62 19.6562 131.909 19.5833 132.148 19.4375C132.388 19.2917 132.583 19.0911 132.734 18.8359C132.891 18.5755 133.005 18.276 133.078 17.9375C133.151 17.599 133.188 17.2396 133.188 16.8594ZM138.562 14.1562V21H136.68V12.5469H138.477L138.562 14.1562ZM141.148 12.4922L141.133 14.2422C141.018 14.2214 140.893 14.2057 140.758 14.1953C140.628 14.1849 140.497 14.1797 140.367 14.1797C140.044 14.1797 139.76 14.2266 139.516 14.3203C139.271 14.4089 139.065 14.5391 138.898 14.7109C138.737 14.8776 138.612 15.0807 138.523 15.3203C138.435 15.5599 138.383 15.8281 138.367 16.125L137.938 16.1562C137.938 15.625 137.99 15.1328 138.094 14.6797C138.198 14.2266 138.354 13.8281 138.562 13.4844C138.776 13.1406 139.042 12.8724 139.359 12.6797C139.682 12.487 140.055 12.3906 140.477 12.3906C140.591 12.3906 140.714 12.401 140.844 12.4219C140.979 12.4427 141.081 12.4661 141.148 12.4922ZM145.914 21.1562C145.289 21.1562 144.724 21.0547 144.219 20.8516C143.719 20.6432 143.292 20.3542 142.938 19.9844C142.589 19.6146 142.32 19.1797 142.133 18.6797C141.945 18.1797 141.852 17.6406 141.852 17.0625V16.75C141.852 16.0885 141.948 15.4896 142.141 14.9531C142.333 14.4167 142.602 13.9583 142.945 13.5781C143.289 13.1927 143.695 12.8984 144.164 12.6953C144.633 12.4922 145.141 12.3906 145.688 12.3906C146.292 12.3906 146.82 12.4922 147.273 12.6953C147.727 12.8984 148.102 13.1849 148.398 13.5547C148.701 13.9193 148.924 14.3542 149.07 14.8594C149.221 15.3646 149.297 15.9219 149.297 16.5312V17.3359H142.766V15.9844H147.438V15.8359C147.427 15.4974 147.359 15.1797 147.234 14.8828C147.115 14.5859 146.93 14.3464 146.68 14.1641C146.43 13.9818 146.096 13.8906 145.68 13.8906C145.367 13.8906 145.089 13.9583 144.844 14.0938C144.604 14.224 144.404 14.4141 144.242 14.6641C144.081 14.9141 143.956 15.2161 143.867 15.5703C143.784 15.9193 143.742 16.3125 143.742 16.75V17.0625C143.742 17.4323 143.792 17.776 143.891 18.0938C143.995 18.4062 144.146 18.6797 144.344 18.9141C144.542 19.1484 144.781 19.3333 145.062 19.4688C145.344 19.599 145.664 19.6641 146.023 19.6641C146.477 19.6641 146.88 19.5729 147.234 19.3906C147.589 19.2083 147.896 18.9505 148.156 18.6172L149.148 19.5781C148.966 19.8438 148.729 20.099 148.438 20.3438C148.146 20.5833 147.789 20.7786 147.367 20.9297C146.951 21.0807 146.466 21.1562 145.914 21.1562ZM155.508 18.7109C155.508 18.5234 155.461 18.3542 155.367 18.2031C155.273 18.0469 155.094 17.9062 154.828 17.7812C154.568 17.6562 154.182 17.5417 153.672 17.4375C153.224 17.3385 152.812 17.2214 152.438 17.0859C152.068 16.9453 151.75 16.776 151.484 16.5781C151.219 16.3802 151.013 16.1458 150.867 15.875C150.721 15.6042 150.648 15.2917 150.648 14.9375C150.648 14.5938 150.724 14.2682 150.875 13.9609C151.026 13.6536 151.242 13.3828 151.523 13.1484C151.805 12.9141 152.146 12.7292 152.547 12.5938C152.953 12.4583 153.406 12.3906 153.906 12.3906C154.615 12.3906 155.221 12.5104 155.727 12.75C156.237 12.9844 156.628 13.3047 156.898 13.7109C157.169 14.112 157.305 14.5651 157.305 15.0703H155.422C155.422 14.8464 155.365 14.638 155.25 14.4453C155.141 14.2474 154.974 14.0885 154.75 13.9688C154.526 13.8438 154.245 13.7812 153.906 13.7812C153.583 13.7812 153.315 13.8333 153.102 13.9375C152.893 14.0365 152.737 14.1667 152.633 14.3281C152.534 14.4896 152.484 14.6667 152.484 14.8594C152.484 15 152.51 15.1276 152.562 15.2422C152.62 15.3516 152.714 15.4531 152.844 15.5469C152.974 15.6354 153.151 15.7188 153.375 15.7969C153.604 15.875 153.891 15.9505 154.234 16.0234C154.88 16.1589 155.435 16.3333 155.898 16.5469C156.367 16.7552 156.727 17.026 156.977 17.3594C157.227 17.6875 157.352 18.1042 157.352 18.6094C157.352 18.9844 157.271 19.3281 157.109 19.6406C156.953 19.9479 156.724 20.2161 156.422 20.4453C156.12 20.6693 155.758 20.8438 155.336 20.9688C154.919 21.0938 154.451 21.1562 153.93 21.1562C153.164 21.1562 152.516 21.0208 151.984 20.75C151.453 20.474 151.049 20.1224 150.773 19.6953C150.503 19.263 150.367 18.8151 150.367 18.3516H152.188C152.208 18.7005 152.305 18.9792 152.477 19.1875C152.654 19.3906 152.872 19.5391 153.133 19.6328C153.398 19.7214 153.672 19.7656 153.953 19.7656C154.292 19.7656 154.576 19.7214 154.805 19.6328C155.034 19.5391 155.208 19.4141 155.328 19.2578C155.448 19.0964 155.508 18.9141 155.508 18.7109ZM163.742 18.7109C163.742 18.5234 163.695 18.3542 163.602 18.2031C163.508 18.0469 163.328 17.9062 163.062 17.7812C162.802 17.6562 162.417 17.5417 161.906 17.4375C161.458 17.3385 161.047 17.2214 160.672 17.0859C160.302 16.9453 159.984 16.776 159.719 16.5781C159.453 16.3802 159.247 16.1458 159.102 15.875C158.956 15.6042 158.883 15.2917 158.883 14.9375C158.883 14.5938 158.958 14.2682 159.109 13.9609C159.26 13.6536 159.477 13.3828 159.758 13.1484C160.039 12.9141 160.38 12.7292 160.781 12.5938C161.188 12.4583 161.641 12.3906 162.141 12.3906C162.849 12.3906 163.456 12.5104 163.961 12.75C164.471 12.9844 164.862 13.3047 165.133 13.7109C165.404 14.112 165.539 14.5651 165.539 15.0703H163.656C163.656 14.8464 163.599 14.638 163.484 14.4453C163.375 14.2474 163.208 14.0885 162.984 13.9688C162.76 13.8438 162.479 13.7812 162.141 13.7812C161.818 13.7812 161.549 13.8333 161.336 13.9375C161.128 14.0365 160.971 14.1667 160.867 14.3281C160.768 14.4896 160.719 14.6667 160.719 14.8594C160.719 15 160.745 15.1276 160.797 15.2422C160.854 15.3516 160.948 15.4531 161.078 15.5469C161.208 15.6354 161.385 15.7188 161.609 15.7969C161.839 15.875 162.125 15.9505 162.469 16.0234C163.115 16.1589 163.669 16.3333 164.133 16.5469C164.602 16.7552 164.961 17.026 165.211 17.3594C165.461 17.6875 165.586 18.1042 165.586 18.6094C165.586 18.9844 165.505 19.3281 165.344 19.6406C165.188 19.9479 164.958 20.2161 164.656 20.4453C164.354 20.6693 163.992 20.8438 163.57 20.9688C163.154 21.0938 162.685 21.1562 162.164 21.1562C161.398 21.1562 160.75 21.0208 160.219 20.75C159.688 20.474 159.284 20.1224 159.008 19.6953C158.737 19.263 158.602 18.8151 158.602 18.3516H160.422C160.443 18.7005 160.539 18.9792 160.711 19.1875C160.888 19.3906 161.107 19.5391 161.367 19.6328C161.633 19.7214 161.906 19.7656 162.188 19.7656C162.526 19.7656 162.81 19.7214 163.039 19.6328C163.268 19.5391 163.443 19.4141 163.562 19.2578C163.682 19.0964 163.742 18.9141 163.742 18.7109ZM166.875 16.8672V16.6875C166.875 16.0781 166.964 15.513 167.141 14.9922C167.318 14.4661 167.573 14.0104 167.906 13.625C168.245 13.2344 168.656 12.9323 169.141 12.7188C169.63 12.5 170.182 12.3906 170.797 12.3906C171.417 12.3906 171.969 12.5 172.453 12.7188C172.943 12.9323 173.357 13.2344 173.695 13.625C174.034 14.0104 174.292 14.4661 174.469 14.9922C174.646 15.513 174.734 16.0781 174.734 16.6875V16.8672C174.734 17.4766 174.646 18.0417 174.469 18.5625C174.292 19.0833 174.034 19.5391 173.695 19.9297C173.357 20.3151 172.945 20.6172 172.461 20.8359C171.977 21.0495 171.427 21.1562 170.812 21.1562C170.193 21.1562 169.638 21.0495 169.148 20.8359C168.664 20.6172 168.253 20.3151 167.914 19.9297C167.576 19.5391 167.318 19.0833 167.141 18.5625C166.964 18.0417 166.875 17.4766 166.875 16.8672ZM168.758 16.6875V16.8672C168.758 17.2474 168.797 17.6068 168.875 17.9453C168.953 18.2839 169.076 18.5807 169.242 18.8359C169.409 19.0911 169.622 19.2917 169.883 19.4375C170.143 19.5833 170.453 19.6562 170.812 19.6562C171.161 19.6562 171.464 19.5833 171.719 19.4375C171.979 19.2917 172.193 19.0911 172.359 18.8359C172.526 18.5807 172.648 18.2839 172.727 17.9453C172.81 17.6068 172.852 17.2474 172.852 16.8672V16.6875C172.852 16.3125 172.81 15.9583 172.727 15.625C172.648 15.2865 172.523 14.987 172.352 14.7266C172.185 14.4661 171.971 14.263 171.711 14.1172C171.456 13.9661 171.151 13.8906 170.797 13.8906C170.443 13.8906 170.135 13.9661 169.875 14.1172C169.62 14.263 169.409 14.4661 169.242 14.7266C169.076 14.987 168.953 15.2865 168.875 15.625C168.797 15.9583 168.758 16.3125 168.758 16.6875ZM176.391 20.0625C176.391 19.7708 176.49 19.526 176.688 19.3281C176.885 19.125 177.154 19.0234 177.492 19.0234C177.836 19.0234 178.104 19.125 178.297 19.3281C178.495 19.526 178.594 19.7708 178.594 20.0625C178.594 20.3542 178.495 20.599 178.297 20.7969C178.104 20.9948 177.836 21.0938 177.492 21.0938C177.154 21.0938 176.885 20.9948 176.688 20.7969C176.49 20.599 176.391 20.3542 176.391 20.0625Z" fill="#303132"/>
<path d="M188.398 19.4453V21H182.359V19.4453H188.398ZM182.914 9.625V21H180.953V9.625H182.914ZM187.609 14.375V15.9062H182.359V14.375H187.609ZM188.359 9.625V11.1875H182.359V9.625H188.359ZM191.695 14.2656V21H189.812V12.5469H191.586L191.695 14.2656ZM191.391 16.4609L190.75 16.4531C190.75 15.8698 190.823 15.3307 190.969 14.8359C191.115 14.3411 191.328 13.9115 191.609 13.5469C191.891 13.1771 192.24 12.8932 192.656 12.6953C193.078 12.4922 193.565 12.3906 194.117 12.3906C194.503 12.3906 194.854 12.4479 195.172 12.5625C195.495 12.6719 195.773 12.8464 196.008 13.0859C196.247 13.3255 196.43 13.6328 196.555 14.0078C196.685 14.3828 196.75 14.8359 196.75 15.3672V21H194.867V15.5312C194.867 15.1198 194.805 14.7969 194.68 14.5625C194.56 14.3281 194.385 14.1615 194.156 14.0625C193.932 13.9583 193.664 13.9062 193.352 13.9062C192.997 13.9062 192.695 13.974 192.445 14.1094C192.201 14.2448 192 14.4297 191.844 14.6641C191.688 14.8984 191.573 15.1693 191.5 15.4766C191.427 15.7839 191.391 16.112 191.391 16.4609ZM196.633 15.9609L195.75 16.1562C195.75 15.6458 195.82 15.1641 195.961 14.7109C196.107 14.2526 196.318 13.8516 196.594 13.5078C196.875 13.1589 197.221 12.8854 197.633 12.6875C198.044 12.4896 198.516 12.3906 199.047 12.3906C199.479 12.3906 199.865 12.4505 200.203 12.5703C200.547 12.6849 200.839 12.8672 201.078 13.1172C201.318 13.3672 201.5 13.6927 201.625 14.0938C201.75 14.4896 201.812 14.9688 201.812 15.5312V21H199.922V15.5234C199.922 15.0964 199.859 14.7656 199.734 14.5312C199.615 14.2969 199.443 14.1354 199.219 14.0469C198.995 13.9531 198.727 13.9062 198.414 13.9062C198.122 13.9062 197.865 13.9609 197.641 14.0703C197.422 14.1745 197.237 14.3229 197.086 14.5156C196.935 14.7031 196.82 14.9193 196.742 15.1641C196.669 15.4089 196.633 15.6745 196.633 15.9609ZM205.641 14.1719V24.25H203.758V12.5469H205.492L205.641 14.1719ZM211.148 16.6953V16.8594C211.148 17.474 211.076 18.0443 210.93 18.5703C210.789 19.0911 210.578 19.5469 210.297 19.9375C210.021 20.3229 209.68 20.6224 209.273 20.8359C208.867 21.0495 208.398 21.1562 207.867 21.1562C207.341 21.1562 206.88 21.0599 206.484 20.8672C206.094 20.6693 205.763 20.3906 205.492 20.0312C205.221 19.6719 205.003 19.25 204.836 18.7656C204.674 18.276 204.56 17.7396 204.492 17.1562V16.5234C204.56 15.9036 204.674 15.3411 204.836 14.8359C205.003 14.3307 205.221 13.8958 205.492 13.5312C205.763 13.1667 206.094 12.8854 206.484 12.6875C206.875 12.4896 207.331 12.3906 207.852 12.3906C208.383 12.3906 208.854 12.4948 209.266 12.7031C209.677 12.9062 210.023 13.1979 210.305 13.5781C210.586 13.9531 210.797 14.4062 210.938 14.9375C211.078 15.4635 211.148 16.0495 211.148 16.6953ZM209.266 16.8594V16.6953C209.266 16.3047 209.229 15.9427 209.156 15.6094C209.083 15.2708 208.969 14.974 208.812 14.7188C208.656 14.4635 208.456 14.2656 208.211 14.125C207.971 13.9792 207.682 13.9062 207.344 13.9062C207.01 13.9062 206.724 13.9635 206.484 14.0781C206.245 14.1875 206.044 14.3411 205.883 14.5391C205.721 14.737 205.596 14.9688 205.508 15.2344C205.419 15.4948 205.357 15.7786 205.32 16.0859V17.6016C205.383 17.9766 205.49 18.3203 205.641 18.6328C205.792 18.9453 206.005 19.1953 206.281 19.3828C206.562 19.5651 206.922 19.6562 207.359 19.6562C207.698 19.6562 207.987 19.5833 208.227 19.4375C208.466 19.2917 208.661 19.0911 208.812 18.8359C208.969 18.5755 209.083 18.276 209.156 17.9375C209.229 17.599 209.266 17.2396 209.266 16.8594ZM214.641 14.1562V21H212.758V12.5469H214.555L214.641 14.1562ZM217.227 12.4922L217.211 14.2422C217.096 14.2214 216.971 14.2057 216.836 14.1953C216.706 14.1849 216.576 14.1797 216.445 14.1797C216.122 14.1797 215.839 14.2266 215.594 14.3203C215.349 14.4089 215.143 14.5391 214.977 14.7109C214.815 14.8776 214.69 15.0807 214.602 15.3203C214.513 15.5599 214.461 15.8281 214.445 16.125L214.016 16.1562C214.016 15.625 214.068 15.1328 214.172 14.6797C214.276 14.2266 214.432 13.8281 214.641 13.4844C214.854 13.1406 215.12 12.8724 215.438 12.6797C215.76 12.487 216.133 12.3906 216.555 12.3906C216.669 12.3906 216.792 12.401 216.922 12.4219C217.057 12.4427 217.159 12.4661 217.227 12.4922ZM221.992 21.1562C221.367 21.1562 220.802 21.0547 220.297 20.8516C219.797 20.6432 219.37 20.3542 219.016 19.9844C218.667 19.6146 218.398 19.1797 218.211 18.6797C218.023 18.1797 217.93 17.6406 217.93 17.0625V16.75C217.93 16.0885 218.026 15.4896 218.219 14.9531C218.411 14.4167 218.68 13.9583 219.023 13.5781C219.367 13.1927 219.773 12.8984 220.242 12.6953C220.711 12.4922 221.219 12.3906 221.766 12.3906C222.37 12.3906 222.898 12.4922 223.352 12.6953C223.805 12.8984 224.18 13.1849 224.477 13.5547C224.779 13.9193 225.003 14.3542 225.148 14.8594C225.299 15.3646 225.375 15.9219 225.375 16.5312V17.3359H218.844V15.9844H223.516V15.8359C223.505 15.4974 223.438 15.1797 223.312 14.8828C223.193 14.5859 223.008 14.3464 222.758 14.1641C222.508 13.9818 222.174 13.8906 221.758 13.8906C221.445 13.8906 221.167 13.9583 220.922 14.0938C220.682 14.224 220.482 14.4141 220.32 14.6641C220.159 14.9141 220.034 15.2161 219.945 15.5703C219.862 15.9193 219.82 16.3125 219.82 16.75V17.0625C219.82 17.4323 219.87 17.776 219.969 18.0938C220.073 18.4062 220.224 18.6797 220.422 18.9141C220.62 19.1484 220.859 19.3333 221.141 19.4688C221.422 19.599 221.742 19.6641 222.102 19.6641C222.555 19.6641 222.958 19.5729 223.312 19.3906C223.667 19.2083 223.974 18.9505 224.234 18.6172L225.227 19.5781C225.044 19.8438 224.807 20.099 224.516 20.3438C224.224 20.5833 223.867 20.7786 223.445 20.9297C223.029 21.0807 222.544 21.1562 221.992 21.1562ZM231.586 18.7109C231.586 18.5234 231.539 18.3542 231.445 18.2031C231.352 18.0469 231.172 17.9062 230.906 17.7812C230.646 17.6562 230.26 17.5417 229.75 17.4375C229.302 17.3385 228.891 17.2214 228.516 17.0859C228.146 16.9453 227.828 16.776 227.562 16.5781C227.297 16.3802 227.091 16.1458 226.945 15.875C226.799 15.6042 226.727 15.2917 226.727 14.9375C226.727 14.5938 226.802 14.2682 226.953 13.9609C227.104 13.6536 227.32 13.3828 227.602 13.1484C227.883 12.9141 228.224 12.7292 228.625 12.5938C229.031 12.4583 229.484 12.3906 229.984 12.3906C230.693 12.3906 231.299 12.5104 231.805 12.75C232.315 12.9844 232.706 13.3047 232.977 13.7109C233.247 14.112 233.383 14.5651 233.383 15.0703H231.5C231.5 14.8464 231.443 14.638 231.328 14.4453C231.219 14.2474 231.052 14.0885 230.828 13.9688C230.604 13.8438 230.323 13.7812 229.984 13.7812C229.661 13.7812 229.393 13.8333 229.18 13.9375C228.971 14.0365 228.815 14.1667 228.711 14.3281C228.612 14.4896 228.562 14.6667 228.562 14.8594C228.562 15 228.589 15.1276 228.641 15.2422C228.698 15.3516 228.792 15.4531 228.922 15.5469C229.052 15.6354 229.229 15.7188 229.453 15.7969C229.682 15.875 229.969 15.9505 230.312 16.0234C230.958 16.1589 231.513 16.3333 231.977 16.5469C232.445 16.7552 232.805 17.026 233.055 17.3594C233.305 17.6875 233.43 18.1042 233.43 18.6094C233.43 18.9844 233.349 19.3281 233.188 19.6406C233.031 19.9479 232.802 20.2161 232.5 20.4453C232.198 20.6693 231.836 20.8438 231.414 20.9688C230.997 21.0938 230.529 21.1562 230.008 21.1562C229.242 21.1562 228.594 21.0208 228.062 20.75C227.531 20.474 227.128 20.1224 226.852 19.6953C226.581 19.263 226.445 18.8151 226.445 18.3516H228.266C228.286 18.7005 228.383 18.9792 228.555 19.1875C228.732 19.3906 228.951 19.5391 229.211 19.6328C229.477 19.7214 229.75 19.7656 230.031 19.7656C230.37 19.7656 230.654 19.7214 230.883 19.6328C231.112 19.5391 231.286 19.4141 231.406 19.2578C231.526 19.0964 231.586 18.9141 231.586 18.7109ZM239.844 19.3047V15.2734C239.844 14.9714 239.789 14.7109 239.68 14.4922C239.57 14.2734 239.404 14.1042 239.18 13.9844C238.961 13.8646 238.685 13.8047 238.352 13.8047C238.044 13.8047 237.779 13.8568 237.555 13.9609C237.331 14.0651 237.156 14.2057 237.031 14.3828C236.906 14.5599 236.844 14.7604 236.844 14.9844H234.969C234.969 14.651 235.049 14.3281 235.211 14.0156C235.372 13.7031 235.607 13.4245 235.914 13.1797C236.221 12.9349 236.589 12.7422 237.016 12.6016C237.443 12.4609 237.922 12.3906 238.453 12.3906C239.089 12.3906 239.651 12.4974 240.141 12.7109C240.635 12.9245 241.023 13.2474 241.305 13.6797C241.591 14.1068 241.734 14.6432 241.734 15.2891V19.0469C241.734 19.4323 241.76 19.7786 241.812 20.0859C241.87 20.388 241.951 20.651 242.055 20.875V21H240.125C240.036 20.7969 239.966 20.5391 239.914 20.2266C239.867 19.9089 239.844 19.6016 239.844 19.3047ZM240.117 15.8594L240.133 17.0234H238.781C238.432 17.0234 238.125 17.0573 237.859 17.125C237.594 17.1875 237.372 17.2812 237.195 17.4062C237.018 17.5312 236.885 17.6823 236.797 17.8594C236.708 18.0365 236.664 18.237 236.664 18.4609C236.664 18.6849 236.716 18.8906 236.82 19.0781C236.924 19.2604 237.076 19.4036 237.273 19.5078C237.477 19.612 237.721 19.6641 238.008 19.6641C238.393 19.6641 238.729 19.5859 239.016 19.4297C239.307 19.2682 239.536 19.0729 239.703 18.8438C239.87 18.6094 239.958 18.388 239.969 18.1797L240.578 19.0156C240.516 19.2292 240.409 19.4583 240.258 19.7031C240.107 19.9479 239.909 20.1823 239.664 20.4062C239.424 20.625 239.135 20.8047 238.797 20.9453C238.464 21.0859 238.078 21.1562 237.641 21.1562C237.089 21.1562 236.596 21.0469 236.164 20.8281C235.732 20.6042 235.393 20.3047 235.148 19.9297C234.904 19.5495 234.781 19.1198 234.781 18.6406C234.781 18.1927 234.865 17.7969 235.031 17.4531C235.203 17.1042 235.453 16.8125 235.781 16.5781C236.115 16.3438 236.521 16.1667 237 16.0469C237.479 15.9219 238.026 15.8594 238.641 15.8594H240.117ZM248.445 18.7109C248.445 18.5234 248.398 18.3542 248.305 18.2031C248.211 18.0469 248.031 17.9062 247.766 17.7812C247.505 17.6562 247.12 17.5417 246.609 17.4375C246.161 17.3385 245.75 17.2214 245.375 17.0859C245.005 16.9453 244.688 16.776 244.422 16.5781C244.156 16.3802 243.951 16.1458 243.805 15.875C243.659 15.6042 243.586 15.2917 243.586 14.9375C243.586 14.5938 243.661 14.2682 243.812 13.9609C243.964 13.6536 244.18 13.3828 244.461 13.1484C244.742 12.9141 245.083 12.7292 245.484 12.5938C245.891 12.4583 246.344 12.3906 246.844 12.3906C247.552 12.3906 248.159 12.5104 248.664 12.75C249.174 12.9844 249.565 13.3047 249.836 13.7109C250.107 14.112 250.242 14.5651 250.242 15.0703H248.359C248.359 14.8464 248.302 14.638 248.188 14.4453C248.078 14.2474 247.911 14.0885 247.688 13.9688C247.464 13.8438 247.182 13.7812 246.844 13.7812C246.521 13.7812 246.253 13.8333 246.039 13.9375C245.831 14.0365 245.674 14.1667 245.57 14.3281C245.471 14.4896 245.422 14.6667 245.422 14.8594C245.422 15 245.448 15.1276 245.5 15.2422C245.557 15.3516 245.651 15.4531 245.781 15.5469C245.911 15.6354 246.089 15.7188 246.312 15.7969C246.542 15.875 246.828 15.9505 247.172 16.0234C247.818 16.1589 248.372 16.3333 248.836 16.5469C249.305 16.7552 249.664 17.026 249.914 17.3594C250.164 17.6875 250.289 18.1042 250.289 18.6094C250.289 18.9844 250.208 19.3281 250.047 19.6406C249.891 19.9479 249.661 20.2161 249.359 20.4453C249.057 20.6693 248.695 20.8438 248.273 20.9688C247.857 21.0938 247.388 21.1562 246.867 21.1562C246.102 21.1562 245.453 21.0208 244.922 20.75C244.391 20.474 243.987 20.1224 243.711 19.6953C243.44 19.263 243.305 18.8151 243.305 18.3516H245.125C245.146 18.7005 245.242 18.9792 245.414 19.1875C245.591 19.3906 245.81 19.5391 246.07 19.6328C246.336 19.7214 246.609 19.7656 246.891 19.7656C247.229 19.7656 247.513 19.7214 247.742 19.6328C247.971 19.5391 248.146 19.4141 248.266 19.2578C248.385 19.0964 248.445 18.9141 248.445 18.7109Z" fill="#6B7B62"/>
</svg>
