<svg width="235" height="235" viewBox="0 0 235 235" fill="none" xmlns="http://www.w3.org/2000/svg">
<path d="M47.1058 58.2388C59.3073 58.2388 69.2116 48.3346 69.2116 36.1166C69.2116 23.9041 59.3073 13.9999 47.1058 13.9999C34.8988 13.9999 25 23.9041 25 36.1166C25 48.3346 34.8988 58.2388 47.1058 58.2388Z" fill="#293A89"/>
<path d="M123.124 9.10275C108.44 9.10275 96.4949 21.0533 96.4949 35.7486C96.4949 50.4385 108.44 62.3945 123.124 62.3945C137.809 62.3945 149.754 50.4385 149.754 35.7486C149.754 21.0533 137.809 9.10275 123.124 9.10275Z" fill="#293A89"/>
<path d="M203.159 -4.23562e-06C185.981 -4.23562e-06 172 13.986 172 31.1696C172 48.3588 185.981 62.3447 203.159 62.3447C220.337 62.3447 234.312 48.3588 234.312 31.1696C234.312 13.986 220.337 -4.23562e-06 203.159 -4.23562e-06Z" fill="#293A89"/>
<path d="M116.325 88.4955C115.748 88.2269 101.964 82 84.4464 82C42.9366 82 0 113.747 0 166.869C0 198.017 18.324 234.387 69.9536 234.387C88.8149 234.387 105.386 226.02 106.078 225.659L106.87 225.258L102.035 195.59L100.546 196.37C96.473 198.501 88.0751 202.073 77.5369 202.073C53.3339 202.073 37.6917 186.893 37.6917 163.399C37.6917 135.92 59.4551 114.385 87.2428 114.385C98.512 114.385 107.729 119.066 110.283 120.502L111.798 121.352L117.171 88.8831L116.325 88.4955Z" fill="#FF6339"/>
<path d="M232.325 88.4955C231.748 88.2269 217.964 82 200.446 82C158.937 82 116 113.747 116 166.869C116 198.017 134.324 234.387 185.954 234.387C204.815 234.387 221.386 226.02 222.078 225.659L222.87 225.258L218.035 195.59L216.546 196.37C212.473 198.501 204.075 202.073 193.537 202.073C169.334 202.073 153.692 186.893 153.692 163.399C153.692 135.92 175.455 114.385 203.243 114.385C214.512 114.385 223.729 119.066 226.283 120.502L227.798 121.352L233.171 88.8831L232.325 88.4955Z" fill="#FF6339"/>
</svg>
